<svg width="18" height="18" viewBox="0 0 18 18" fill="none" xmlns="http://www.w3.org/2000/svg">
<path d="M17.4997 0.499742C17.2341 0.234158 16.8738 0.0849609 16.4982 0.0849609C16.1225 0.0849609 15.7622 0.234158 15.4966 0.499742L8.99974 6.99658L2.50291 0.499742C2.23724 0.234158 1.87697 0.0849609 1.50132 0.0849609C1.12568 0.0849609 0.765406 0.234158 0.499742 0.499742C0.234158 0.765406 0.0849609 1.12568 0.0849609 1.50132C0.0849609 1.87697 0.234158 2.23724 0.499742 2.50291L6.99658 8.99974L0.499742 15.4966C0.234158 15.7622 0.0849609 16.1225 0.0849609 16.4982C0.0849609 16.8738 0.234158 17.2341 0.499742 17.4997C0.765406 17.7653 1.12568 17.9145 1.50132 17.9145C1.87697 17.9145 2.23724 17.7653 2.50291 17.4997L8.99974 11.0029L15.4966 17.4997C15.7622 17.7653 16.1225 17.9145 16.4982 17.9145C16.8738 17.9145 17.2341 17.7653 17.4997 17.4997C17.7653 17.2341 17.9145 16.8738 17.9145 16.4982C17.9145 16.1225 17.7653 15.7622 17.4997 15.4966L11.0029 8.99974L17.4997 2.50291C17.7653 2.23724 17.9145 1.87697 17.9145 1.50132C17.9145 1.12568 17.7653 0.765406 17.4997 0.499742Z" fill="#09F9BF"/>
</svg>
