<?xml version="1.0" encoding="utf-8"?>
<!-- Generator: Adobe Illustrator 25.3.0, SVG Export Plug-In . SVG Version: 6.00 Build 0)  -->
<svg version="1.1" id="Calque_1" xmlns="http://www.w3.org/2000/svg" xmlns:xlink="http://www.w3.org/1999/xlink" x="0px" y="0px"
	 viewBox="0 0 1000 1000" style="enable-background:new 0 0 1000 1000;" xml:space="preserve">
<style type="text/css">
	.st0{fill:#FFFFFF;}
</style>
<path class="st0" d="M360.48,77.54H231.45L78.84,463.92h112.72l26.9-71.55h151.77l25.83,71.55h117.57L360.76,78.25L360.48,77.54z
	 M338.21,304.58h-87.17l44.35-117.74h0.05L338.21,304.58z M916,326.1l-0.25,1.32c-8.19,44.08-26.56,78.78-54.57,103.13
	c-30.4,26.42-71.42,39.82-121.93,39.82c-58.87,0-108.62-19.44-143.86-56.23c-34.39-35.9-52.57-85.49-52.57-143.42
	c0-119.42,78.94-199.65,196.42-199.65c50.58,0,91.6,13.33,121.93,39.62c28.03,24.3,46.4,59.07,54.57,103.34l0.24,1.32H803.97
	l-0.17-0.91c-6.91-36.88-28.63-55.58-64.54-55.58c-51.71,0-79.04,38.68-79.04,111.86c0,73.18,27.33,111.86,79.04,111.86
	c35.91,0,57.62-18.7,64.54-55.58l0.17-0.91H916z M79.01,535.65h431.22v88.32H352.5v298.06H236.74V623.98H79.01V535.65z"/>
<g>
	<path class="st0" d="M673.43,624.84l-10.56-29.94c18.32-19.38,49.46-19.78,69.43-0.9c18.3,17.3,20.95,44.87,7.17,64.28
		c-1.6,1.48-3.17,3.01-4.68,4.61l-62.92,66.56l28.24-2.85l-11.39,44.74l13.01,0.1l0,0l69.8-73.84c1.52-1.61,2.96-3.25,4.34-4.94
		c18.6-14.85,46.28-13.75,64.58,3.55c19.97,18.88,21.32,50,3,69.37l-30.49-8.86l28.43,83.58l38.27-40.49
		c36.69-38.81,34-100.93-6-138.75c-21.5-20.32-49.4-29.48-76.3-27.59c0.37-26.97-10.34-54.31-31.84-74.63
		c-40-37.81-102.18-37.01-138.87,1.81l-36.06,38.15L673.43,624.84z"/>
	<path class="st0" d="M836.23,863.96l-42.84-125.93l45.39,13.19c8.66-14.25,6.16-33.55-6.92-45.92
		c-13.22-12.5-33.33-13.95-47.26-3.58c-1.31,1.56-2.65,3.05-3.99,4.47l-73.54,77.8l-34.41-0.28l10.92-42.88l-43.86,4.43l85.98-90.96
		c1.34-1.42,2.76-2.84,4.24-4.23c9.57-14.5,6.99-34.49-6.23-46.99c-7.28-6.89-16.77-10.6-26.59-10.48
		c-7.2,0.09-13.97,2.24-19.65,6.15l16.05,45.51l-125.75-39.51l49.79-52.67c20.09-21.25,47.47-33.17,77.11-33.55
		c0.49-0.01,0.99-0.01,1.48-0.01c28.96,0,56.58,11.07,77.94,31.26c19.99,18.9,32.44,44.28,35.18,71.09
		c26.92,1.23,52.96,12.23,72.95,31.13c44.95,42.49,47.86,112.66,6.5,156.42L836.23,863.96z M832.52,775.43l14.02,41.23l24.03-25.42
		c31.9-33.74,29.43-88.06-5.5-121.08c-18.09-17.1-42.45-25.92-66.84-24.21l-13.56,0.95l0.19-13.59
		c0.34-24.45-9.84-48.28-27.92-65.37c-16.97-16.04-39.01-24.71-61.93-24.42c-22.82,0.3-43.87,9.43-59.27,25.73l-22.33,23.63
		l39.92,12.54l-4.78-13.56l5.24-5.55c11.2-11.85,26.48-18.49,43.02-18.71c0.28,0,0.55-0.01,0.83-0.01c16.1,0,31.43,6.13,43.26,17.31
		c22.52,21.28,26.29,55.93,8.78,80.6l-0.76,1.07l-0.97,0.89c-1.43,1.32-2.8,2.67-4.07,4.01l-39.86,42.16l12.61-1.27l-8.75,34.37
		l54.56-57.72c1.26-1.33,2.53-2.77,3.77-4.29l0.83-1.01l1.02-0.82c23.64-18.87,58.45-17.06,80.96,4.23
		c24.98,23.61,26.55,62.66,3.5,87.04l-5.24,5.55L832.52,775.43z"/>
</g>
<g>
	<path class="st0" d="M616.44,825.04l17.37-29.82l-15.27-1.24l-64.42,46.76c-9.87-2.28-20.5-0.52-29.17,5.78
		c-16.18,11.75-19.5,34.87-7.39,51.55c0.07,0.1,0.14,0.19,0.21,0.28c0.07,0.1,0.13,0.2,0.2,0.29c12.11,16.68,35.12,20.69,51.3,8.95
		c8.67-6.29,13.64-15.86,14.53-25.94l56.34-40.9L616.44,825.04z M547.11,911.22c-18.87,0-34.18-15.3-34.18-34.18
		s15.3-34.18,34.18-34.18s34.18,15.3,34.18,34.18S565.98,911.22,547.11,911.22z"/>
	<path class="st0" d="M548.5,926.83c-2.83,0-5.69-0.25-8.56-0.75c-12.92-2.25-24.32-9.39-32.09-20.1c-0.07-0.1-0.14-0.19-0.2-0.29
		c-0.06-0.08-0.11-0.15-0.17-0.23c-16.2-22.32-11.64-53.27,10.12-69.07c9.63-6.99,21.52-10.09,33.39-8.84l63.95-46.42l39.66,3.22
		l-21.42,36.77l28.9,19.14l-66.71,48.42c-2.48,11.66-9.12,22.01-18.75,29C568.35,923.7,558.6,926.83,548.5,926.83z M547.11,855.37
		c-11.95,0-21.68,9.72-21.68,21.67c0,11.95,9.72,21.68,21.68,21.68s21.68-9.72,21.68-21.68
		C568.79,865.1,559.06,855.37,547.11,855.37z M575.92,840.35c6.75,5.31,12.01,12.45,15.02,20.66l27.27-19.8l-18.52-12.27l5.9-10.13
		L575.92,840.35z"/>
</g>
</svg>
