<svg width="120" height="120" viewBox="0 0 374 384" fill="none" xmlns="http://www.w3.org/2000/svg">
<g clip-path="url(#clip0)">
<path d="M130.33 142.829H61.9299L49.9299 174.749H0.72998L68.4099 3.37891H125.29L193.22 174.749H141.86L130.33 142.829ZM76.09 104.669H116.41L96.97 51.1389H96.2499L76.09 104.669Z" fill="white" stroke="white" stroke-miterlimit="10"/>
<path d="M294.6 139.521C312.12 139.521 321 129.681 323.88 114.321H372.88C365.88 151.761 341.44 177.681 294.64 177.681C240.64 177.681 207.52 140.681 207.52 89.1208C207.52 37.7508 240.64 0.550781 294.64 0.550781C341.44 0.550781 365.92 26.2308 372.88 63.9208H323.88C321 48.5608 312.12 38.7208 294.6 38.7208C271.08 38.7208 258.84 56.7208 258.84 89.1208C258.84 121.711 271.08 139.521 294.6 139.521Z" fill="white" stroke="white" stroke-miterlimit="10"/>
<path d="M70.9299 246.138H0.569824V207.738H191.94V246.138H121.57V379.138H70.9299V246.138Z" fill="white" stroke="white" stroke-miterlimit="10"/>
<path d="M326.93 326.081L309 329.401L309.71 316.611L297.1 322.101L295.48 327.431C290.67 343.331 273.4 352.431 256.98 347.821C240.56 343.211 231.12 326.431 235.98 310.531L249.47 306.661L221.61 262.121L206.2 302.121C196.56 333.981 215.41 367.371 248.31 376.711C281.21 386.051 315.68 367.781 325.31 335.921L327.52 328.641L326.93 326.081Z" fill="white" stroke="white" stroke-width="8.05" stroke-miterlimit="10"/>
<path d="M351.81 194.64C339.5 191.15 326.54 198.01 322.93 209.94C322.012 212.982 321.767 216.188 322.212 219.334C322.658 222.481 323.783 225.493 325.51 228.16L312.67 272.39L323.03 268.54L329.19 286.11L342.29 281.38L355.29 236.61C358.216 235.281 360.826 233.346 362.948 230.932C365.07 228.519 366.656 225.682 367.6 222.61C371.21 210.69 364.13 198.14 351.81 194.64ZM345.27 235.43C342.754 235.431 340.263 234.937 337.938 233.975C335.614 233.014 333.502 231.603 331.722 229.825C329.943 228.046 328.532 225.935 327.569 223.611C326.606 221.287 326.11 218.796 326.11 216.28C326.11 211.199 328.129 206.325 331.722 202.732C335.315 199.139 340.188 197.12 345.27 197.12C347.786 197.12 350.277 197.616 352.601 198.579C354.925 199.542 357.036 200.953 358.815 202.733C360.593 204.512 362.003 206.624 362.965 208.949C363.927 211.273 364.421 213.765 364.42 216.28C364.42 221.359 362.402 226.23 358.811 229.821C355.22 233.413 350.349 235.43 345.27 235.43Z" fill="white" stroke="white" stroke-width="8.05" stroke-miterlimit="10"/>
</g>
<defs>
<clipPath id="clip0">
<rect width="373.45" height="383.13" fill="white"/>
</clipPath>
</defs>
</svg>
