<svg width="35" height="34" viewBox="0 0 35 34" fill="none" xmlns="http://www.w3.org/2000/svg">
<path d="M28.5436 19.4495C23.1825 19.6599 18.1067 21.0625 13.5843 23.3872L7.76905 26.7659C6.23112 27.6581 4.26706 27.1226 3.38445 25.5831L0.429056 20.4341C-0.455448 18.8919 0.071754 16.9124 1.6045 16.0225L6.42246 13.2232C6.70145 13.0612 7.05824 13.1573 7.21939 13.4381L11.0052 20.0357C11.1691 20.3214 11.5356 20.4162 11.8169 20.2417C12.089 20.0729 12.1633 19.7062 12.0034 19.4277L8.1903 12.7824C8.03885 12.5184 8.11323 12.1814 8.36224 12.0077C12.3397 9.23308 15.7048 5.69914 18.289 1.57765C19.268 0.0149719 21.5493 0.0567918 22.4695 1.65982L30.5627 15.7657C31.4825 17.3653 30.3813 19.3776 28.5436 19.4495ZM29.5821 9.62531C29.8817 7.89983 28.8766 6.16921 27.252 5.57683C26.7414 5.39062 26.2781 5.94976 26.5496 6.42306C27.196 7.54979 27.8447 8.6804 28.5006 9.82304C28.7746 10.3003 29.4878 10.1683 29.5821 9.62531ZM16.1161 30.3939L13.3478 25.5587C13.1869 25.2777 12.8297 25.1814 12.5505 25.3435C11.0502 26.2144 10.9934 26.2482 8.99219 27.4105C8.71313 27.5726 8.61717 27.9318 8.77832 28.2126L11.5513 33.0447C11.9068 33.6635 12.5461 34 13.1971 34C13.8286 34 14.0701 33.785 15.4219 33C16.3275 32.4739 16.6389 31.3044 16.1161 30.3939ZM33.8414 5.16244C34.1204 5.00037 34.2161 4.64138 34.0549 4.36067C33.8939 4.08004 33.5373 3.9837 33.2581 4.14585L31.7487 5.02268C31.2322 5.32275 31.4482 6.11807 32.041 6.11807C32.2484 6.118 32.2069 6.11198 33.8414 5.16244ZM28.4774 2.12095L28.8455 0.738974C28.9289 0.425836 28.7442 0.104041 28.433 0.0201076C28.1216 -0.0636795 27.8019 0.122017 27.7185 0.435154L27.3504 1.81713C27.2513 2.18925 27.53 2.55617 27.9142 2.55617C28.1718 2.5561 28.4075 2.38317 28.4774 2.12095ZM34.98 11.4297C35.0634 11.1166 34.8786 10.7947 34.5675 10.7109L33.1939 10.3406C32.8828 10.2569 32.5629 10.4426 32.4794 10.7556C32.396 11.0687 32.5808 11.3906 32.8919 11.4745C34.3941 11.8795 34.3117 11.865 34.4168 11.865C34.6744 11.865 34.9101 11.692 34.98 11.4297Z" fill="black"/>
</svg>
