<?xml version="1.0" encoding="utf-8"?>
<!-- Generator: Adobe Illustrator 25.3.0, SVG Export Plug-In . SVG Version: 6.00 Build 0)  -->
<svg version="1.1" id="Calque_1" xmlns="http://www.w3.org/2000/svg" xmlns:xlink="http://www.w3.org/1999/xlink" x="0px" y="0px"
	 viewBox="0 0 1000 1000" style="enable-background:new 0 0 1000 1000;" xml:space="preserve">
<style type="text/css">
	.st0{fill:#010202;}
	.st1{fill:#010202;stroke:#010202;stroke-width:25;stroke-miterlimit:10;}
</style>
<path class="st0" d="M360.48,77.54H231.45L78.84,463.92h112.72l26.9-71.55h151.77l25.83,71.55h117.57L360.76,78.25L360.48,77.54z
	 M338.21,304.58h-87.17l44.35-117.74h0.05L338.21,304.58z M916,326.1l-0.25,1.32c-8.19,44.08-26.56,78.78-54.57,103.13
	c-30.4,26.42-71.42,39.82-121.93,39.82c-58.87,0-108.62-19.44-143.86-56.23c-34.39-35.9-52.57-85.49-52.57-143.42
	c0-119.42,78.94-199.65,196.42-199.65c50.58,0,91.6,13.33,121.93,39.62c28.03,24.3,46.4,59.07,54.57,103.34l0.24,1.32H803.97
	l-0.17-0.91c-6.91-36.88-28.63-55.58-64.54-55.58c-51.71,0-79.04,38.68-79.04,111.86c0,73.18,27.33,111.86,79.04,111.86
	c35.91,0,57.62-18.7,64.54-55.58l0.17-0.91H916z M79.01,535.65h431.22v88.32H352.5v298.06H236.74V623.98H79.01V535.65z"/>
<path class="st1" d="M673.43,624.84l-10.56-29.94c18.32-19.38,49.46-19.78,69.43-0.9c18.3,17.3,20.95,44.87,7.17,64.28
	c-1.6,1.48-3.17,3.01-4.68,4.61l-62.92,66.56l28.24-2.85l-11.39,44.74l13.01,0.1l0,0l69.8-73.84c1.52-1.61,2.96-3.25,4.34-4.94
	c18.6-14.85,46.28-13.75,64.58,3.55c19.97,18.88,21.32,50,3,69.37l-30.49-8.86l28.43,83.58l38.27-40.49
	c36.69-38.81,34-100.93-6-138.75c-21.5-20.32-49.4-29.48-76.3-27.59c0.37-26.97-10.34-54.31-31.84-74.63
	c-40-37.81-102.18-37.01-138.87,1.81l-36.06,38.15L673.43,624.84z"/>
<path class="st1" d="M616.44,825.04l17.37-29.82l-15.27-1.24l-64.42,46.76c-9.87-2.28-20.5-0.52-29.17,5.78
	c-16.18,11.75-19.5,34.87-7.39,51.55c0.07,0.1,0.14,0.19,0.21,0.28c0.07,0.1,0.13,0.2,0.2,0.29c12.11,16.68,35.12,20.69,51.3,8.95
	c8.67-6.29,13.64-15.86,14.53-25.94l56.34-40.9L616.44,825.04z M547.11,911.22c-18.87,0-34.18-15.3-34.18-34.18
	s15.3-34.18,34.18-34.18s34.18,15.3,34.18,34.18S565.98,911.22,547.11,911.22z"/>
</svg>
