<svg width="22" height="19" viewBox="0 0 22 19" fill="none" xmlns="http://www.w3.org/2000/svg">
<path d="M9.31976 17.5723C9.45922 17.433 9.56986 17.2676 9.64534 17.0855C9.72083 16.9034 9.75969 16.7082 9.75969 16.511C9.75969 16.3139 9.72083 16.1187 9.64534 15.9366C9.56986 15.7545 9.45922 15.5891 9.31976 15.4498L4.38175 10.5103L19.9998 10.4998C20.3976 10.4998 20.7791 10.3418 21.0604 10.0605C21.3417 9.77915 21.4998 9.39762 21.4998 8.9998C21.4998 8.60197 21.3417 8.22044 21.0604 7.93914C20.7791 7.65783 20.3976 7.4998 19.9998 7.4998L4.37875 7.5103L9.31976 2.5723C9.60122 2.29103 9.75942 1.90948 9.75956 1.51158C9.7597 1.11367 9.60177 0.732007 9.32051 0.450546C9.03924 0.169085 8.65769 0.0108829 8.25979 0.0107423C7.86188 0.0106016 7.48022 0.168534 7.19875 0.449796L1.81975 5.8288C1.40181 6.24667 1.07027 6.74278 0.84408 7.28879C0.617886 7.83481 0.501465 8.42003 0.501465 9.01105C0.501465 9.60206 0.617886 10.1873 0.84408 10.7333C1.07027 11.2793 1.40181 11.7754 1.81975 12.1933L7.19875 17.5723C7.48005 17.8535 7.86151 18.0115 8.25926 18.0115C8.657 18.0115 9.03846 17.8535 9.31976 17.5723Z" fill="white"/>
</svg>
